<svg xmlns="http://www.w3.org/2000/svg" viewBox="0 0 680 460" fill="none">
  <defs>
    <clipPath id="card">
      <rect width="680" height="460" rx="16"/>
    </clipPath>
  </defs>
  <g clip-path="url(#card)">
    <rect width="680" height="460" fill="white"/>
    <!-- Chrome -->
    <rect x="0" y="0" width="680" height="44" fill="#f9fafb"/>
    <line x1="0" y1="44" x2="680" y2="44" stroke="#e5e7eb"/>
    <circle cx="20" cy="22" r="5" fill="#ff5f57"/>
    <circle cx="34" cy="22" r="5" fill="#febc2e"/>
    <circle cx="48" cy="22" r="5" fill="#28c840"/>
    <rect x="196" y="11" width="288" height="22" rx="5" fill="white" stroke="#e5e7eb"/>
    <text x="340" y="26" text-anchor="middle" font-family="sans-serif" font-size="10" fill="#9ca3af">app.brigadely.com/overview</text>
    <!-- Page header -->
    <text x="20" y="68" font-family="sans-serif" font-size="14" font-weight="600" fill="#111111">Finance Overview</text>
    <text x="20" y="85" font-family="sans-serif" font-size="11" fill="#9ca3af">Threadline Co. · May 2025</text>
    <rect x="552" y="55" width="112" height="24" rx="12" fill="#d1fae5"/>
    <text x="608" y="71" text-anchor="middle" font-family="sans-serif" font-size="11" font-weight="600" fill="#007a3d">Reconciled</text>
    <!-- 3 metric tiles -->
    <rect x="16" y="98" width="204" height="80" rx="10" fill="#f9fafb" stroke="#f3f4f6"/>
    <text x="32" y="118" font-family="sans-serif" font-size="10" fill="#9ca3af">Total disbursed</text>
    <text x="32" y="143" font-family="sans-serif" font-size="22" font-weight="700" fill="#111111">&#8358;24.4M</text>
    <text x="32" y="161" font-family="sans-serif" font-size="10" fill="#9ca3af">248 employees · NGN</text>
    <rect x="232" y="98" width="204" height="80" rx="10" fill="#f9fafb" stroke="#f3f4f6"/>
    <text x="248" y="118" font-family="sans-serif" font-size="10" fill="#9ca3af">Statutory remitted</text>
    <text x="248" y="143" font-family="sans-serif" font-size="22" font-weight="700" fill="#007a3d">&#8358;3.82M</text>
    <text x="248" y="161" font-family="sans-serif" font-size="10" fill="#9ca3af">PAYE · Pension · NHF · NSITF · ITF</text>
    <rect x="448" y="98" width="216" height="80" rx="10" fill="#f9fafb" stroke="#f3f4f6"/>
    <text x="464" y="118" font-family="sans-serif" font-size="10" fill="#9ca3af">Vendor payments</text>
    <text x="464" y="143" font-family="sans-serif" font-size="22" font-weight="700" fill="#111111">&#8358;2.1M</text>
    <text x="464" y="161" font-family="sans-serif" font-size="10" fill="#9ca3af">3 vendors · WHT applied</text>
    <!-- Reconciliation bar -->
    <rect x="16" y="194" width="648" height="36" rx="8" fill="#e0f3ec"/>
    <circle cx="36" cy="212" r="9" fill="#007a3d"/>
    <path d="M32 212 L35 215 L41 208" stroke="white" stroke-width="1.5" stroke-linecap="round" stroke-linejoin="round"/>
    <text x="54" y="216" font-family="sans-serif" font-size="12" font-weight="600" fill="#007a3d">Books reconciled · May 2025</text>
    <text x="376" y="216" font-family="sans-serif" font-size="11" fill="#059669">All 5 statutory obligations met · Audit trail available</text>
    <!-- Recent movements -->
    <text x="20" y="254" font-family="sans-serif" font-size="10" font-weight="700" fill="#9ca3af" letter-spacing="1">RECENT MOVEMENTS</text>
    <line x1="16" y1="264" x2="664" y2="264" stroke="#f3f4f6"/>
    <!-- Row 1 -->
    <text x="20" y="284" font-family="sans-serif" font-size="12" font-weight="500" fill="#111111">Staff payroll disbursement</text>
    <text x="20" y="299" font-family="sans-serif" font-size="10" fill="#9ca3af">May 30, 2025 · 248 employees</text>
    <text x="502" y="284" font-family="sans-serif" font-size="12" font-weight="600" fill="#111111">&#8358;24,400,000</text>
    <rect x="596" y="273" width="56" height="20" rx="10" fill="#d1fae5"/>
    <text x="624" y="287" text-anchor="middle" font-family="sans-serif" font-size="10" font-weight="600" fill="#007a3d">Paid</text>
    <line x1="16" y1="312" x2="664" y2="312" stroke="#f3f4f6"/>
    <!-- Row 2 -->
    <text x="20" y="332" font-family="sans-serif" font-size="12" font-weight="500" fill="#111111">PAYE remittance — Lagos State IRS</text>
    <text x="20" y="347" font-family="sans-serif" font-size="10" fill="#9ca3af">May 30, 2025 · Statutory</text>
    <text x="502" y="332" font-family="sans-serif" font-size="12" font-weight="600" fill="#111111">&#8358;1,440,000</text>
    <rect x="596" y="321" width="56" height="20" rx="10" fill="#d1fae5"/>
    <text x="624" y="335" text-anchor="middle" font-family="sans-serif" font-size="10" font-weight="600" fill="#007a3d">Filed</text>
    <line x1="16" y1="360" x2="664" y2="360" stroke="#f3f4f6"/>
    <!-- Row 3 -->
    <text x="20" y="380" font-family="sans-serif" font-size="12" font-weight="500" fill="#111111">QuickWater Ltd — Vendor invoice #24</text>
    <text x="20" y="395" font-family="sans-serif" font-size="10" fill="#9ca3af">May 28, 2025 · WHT applied · Vendor</text>
    <text x="502" y="380" font-family="sans-serif" font-size="12" font-weight="600" fill="#111111">&#8358;840,000</text>
    <rect x="596" y="369" width="56" height="20" rx="10" fill="#d1fae5"/>
    <text x="624" y="383" text-anchor="middle" font-family="sans-serif" font-size="10" font-weight="600" fill="#007a3d">Paid</text>
    <line x1="16" y1="408" x2="664" y2="408" stroke="#f3f4f6"/>
    <!-- Row 4 -->
    <text x="20" y="428" font-family="sans-serif" font-size="12" font-weight="500" fill="#111111">Pension remittance — ARM Pensions</text>
    <text x="20" y="443" font-family="sans-serif" font-size="10" fill="#9ca3af">May 30, 2025 · PenCom · Statutory</text>
    <text x="502" y="428" font-family="sans-serif" font-size="12" font-weight="600" fill="#111111">&#8358;820,000</text>
    <rect x="596" y="417" width="56" height="20" rx="10" fill="#d1fae5"/>
    <text x="624" y="431" text-anchor="middle" font-family="sans-serif" font-size="10" font-weight="600" fill="#007a3d">Filed</text>
  </g>
  <rect width="680" height="460" rx="16" fill="none" stroke="#e5e7eb"/>
</svg>
